<svg width="130" height="46" viewBox="0 0 130 46" fill="none" xmlns="http://www.w3.org/2000/svg">
<g clip-path="url(#clip0_2_14)">
<path d="M32 46.08H2.304C1.49333 46.08 0.896 45.9093 0.512 45.568C0.170667 45.184 0 44.5867 0 43.776V2.304C0 1.49333 0.170667 0.917334 0.512 0.576C0.896 0.192 1.49333 0 2.304 0H32C32.8107 0 33.3867 0.192 33.728 0.576C34.112 0.917334 34.304 1.49333 34.304 2.304V9.792C34.304 10.6027 34.112 11.2 33.728 11.584C33.3867 11.9253 32.8107 12.096 32 12.096H14.336V17.024H26.816C27.6267 17.024 28.2027 17.216 28.544 17.6C28.928 17.9413 29.12 18.5173 29.12 19.328V26.176C29.12 26.9867 28.928 27.584 28.544 27.968C28.2027 28.3093 27.6267 28.48 26.816 28.48H14.336V33.984H32C32.8107 33.984 33.3867 34.176 33.728 34.56C34.112 34.9013 34.304 35.4773 34.304 36.288V43.776C34.304 44.5867 34.112 45.184 33.728 45.568C33.3867 45.9093 32.8107 46.08 32 46.08Z" fill="url(#paint0_radial_2_14)"/>
<path d="M74.963 0H84.499C85.3097 0 85.8857 0.192 86.227 0.576C86.611 0.917334 86.803 1.49333 86.803 2.304V27.136C86.803 28.5013 86.739 29.7813 86.611 30.976C86.5257 32.128 86.2057 33.4933 85.651 35.072L82.451 43.776C82.2377 44.416 81.9177 44.9707 81.491 45.44C81.107 45.8667 80.5737 46.08 79.891 46.08H71.379C70.6963 46.08 70.0777 45.9307 69.523 45.632C68.9683 45.3333 68.6057 44.8427 68.435 44.16L65.491 33.728C65.363 33.3013 65.1923 33.024 64.979 32.896C64.8083 32.7253 64.595 32.64 64.339 32.64H63.763C63.507 32.64 63.2723 32.7253 63.059 32.896C62.8883 33.024 62.739 33.3013 62.611 33.728L59.603 44.16C59.4323 44.8 59.1123 45.2907 58.643 45.632C58.1737 45.9307 57.5977 46.08 56.915 46.08H48.467C47.7843 46.08 47.187 45.8667 46.675 45.44C46.2057 45.0133 45.8643 44.4587 45.651 43.776L42.451 34.944C41.8963 33.3653 41.555 32 41.427 30.848C41.3417 29.6533 41.299 28.3733 41.299 27.008V2.304C41.299 1.49333 41.4697 0.917334 41.811 0.576C42.195 0.192 42.7923 0 43.603 0H53.459C54.2697 0 54.8457 0.192 55.187 0.576C55.571 0.917334 55.763 1.49333 55.763 2.304V25.856L59.475 17.792C59.8163 17.0667 60.2643 16.5547 60.819 16.256C61.3737 15.9573 62.0563 15.808 62.867 15.808H65.555C66.3657 15.808 67.0483 15.9573 67.603 16.256C68.1577 16.5547 68.6057 17.0667 68.947 17.792L72.659 25.856V2.304C72.659 1.49333 72.8297 0.917334 73.171 0.576C73.555 0.192 74.1523 0 74.963 0Z" fill="url(#paint1_radial_2_14)"/>
<path d="M116.438 46.08H96.2145C95.4038 46.08 94.8065 45.9093 94.4225 45.568C94.0812 45.184 93.9105 44.5867 93.9105 43.776V36.288C93.9105 35.4773 94.0812 34.9013 94.4225 34.56C94.8065 34.176 95.4038 33.984 96.2145 33.984H113.43C113.985 33.984 114.391 33.8133 114.646 33.472C114.945 33.088 115.094 32.64 115.094 32.128C115.094 31.4027 114.945 30.8693 114.646 30.528C114.391 30.1867 113.985 29.9947 113.43 29.952L103.83 28.608C100.844 28.1813 98.4332 27.2 96.5985 25.664C94.8065 24.128 93.9105 21.568 93.9105 17.984V11.264C93.9105 7.63733 95.0838 4.864 97.4305 2.944C99.7772 0.981333 103.02 0 107.159 0H125.079C125.889 0 126.465 0.192 126.807 0.576C127.191 0.917334 127.382 1.49333 127.382 2.304V9.92C127.382 10.7307 127.191 11.328 126.807 11.712C126.465 12.0533 125.889 12.224 125.079 12.224H110.167C109.612 12.224 109.185 12.416 108.887 12.8C108.588 13.1413 108.438 13.5893 108.438 14.144C108.438 14.6987 108.588 15.168 108.887 15.552C109.185 15.936 109.612 16.1493 110.167 16.192L119.702 17.472C122.689 17.8987 125.1 18.88 126.935 20.416C128.769 21.952 129.686 24.512 129.686 28.096V34.816C129.686 38.4427 128.492 41.2373 126.103 43.2C123.756 45.12 120.535 46.08 116.438 46.08Z" fill="url(#paint2_radial_2_14)"/>
</g>
<defs>
<radialGradient id="paint0_radial_2_14" cx="0" cy="0" r="1" gradientUnits="userSpaceOnUse" gradientTransform="translate(-4.60611e-06 46.08) rotate(-21.8381) scale(139.712 258.023)">
<stop stop-color="#F2CC54"/>
<stop offset="0.331996" stop-color="#DE4E28"/>
<stop offset="0.730286" stop-color="#C30089"/>
<stop offset="0.939184" stop-color="#6602E8"/>
</radialGradient>
<radialGradient id="paint1_radial_2_14" cx="0" cy="0" r="1" gradientUnits="userSpaceOnUse" gradientTransform="translate(-4.60611e-06 46.08) rotate(-21.8381) scale(139.712 258.023)">
<stop stop-color="#F2CC54"/>
<stop offset="0.331996" stop-color="#DE4E28"/>
<stop offset="0.730286" stop-color="#C30089"/>
<stop offset="0.939184" stop-color="#6602E8"/>
</radialGradient>
<radialGradient id="paint2_radial_2_14" cx="0" cy="0" r="1" gradientUnits="userSpaceOnUse" gradientTransform="translate(-4.60611e-06 46.08) rotate(-21.8381) scale(139.712 258.023)">
<stop stop-color="#F2CC54"/>
<stop offset="0.331996" stop-color="#DE4E28"/>
<stop offset="0.730286" stop-color="#C30089"/>
<stop offset="0.939184" stop-color="#6602E8"/>
</radialGradient>
<clipPath id="clip0_2_14">
<rect width="130" height="46" fill="white"/>
</clipPath>
</defs>
</svg>
