<svg width="164" height="164" viewBox="0 0 164 164" fill="none" xmlns="http://www.w3.org/2000/svg">
<rect width="164" height="164" rx="82" fill="#6602E8"/>
<path fill-rule="evenodd" clip-rule="evenodd" d="M67 40C88.375 40 106 53.5 106 70C106 86.6875 88.375 100 67 100C59.3124 100 51.9999 98.3125 45.9999 95.3125C41.8749 97.75 36.2499 100 29.4999 100C28.7499 100 28.3749 99.8125 27.9999 99.25C27.8124 98.6875 27.9999 97.9375 28.3749 97.5625C28.3749 97.5625 32.4999 93.0625 35.1249 87.25C30.6249 82.375 27.9999 76.5625 27.9999 70C27.9999 53.5 45.4374 40 67 40ZM136 94C136 100.562 133.187 106.375 128.875 111.25C131.312 117.062 135.437 121.562 135.437 121.562C136 121.938 136 122.688 135.812 123.25C135.625 123.812 135.062 124 134.5 124C127.562 124 121.937 121.75 117.812 119.312C111.812 122.312 104.687 124 96.9999 124C80.6875 124 66.8125 116.5 61 105.812C62.875 106 64.9375 106 67 106C91.75 106 112 89.875 112 70C112 68.875 111.812 67.5625 111.625 66.25C125.875 70.75 136 81.625 136 94ZM67.2031 52.5C61.5781 52.5 57.9218 54.8203 55.039 58.9688C54.5468 59.6719 54.6874 60.7266 55.4609 61.2188L58.4843 63.5391C59.1874 64.1016 60.2421 63.9609 60.8046 63.2578C62.5624 61.0781 63.8984 59.8125 66.6406 59.8125C68.8203 59.8125 71.4921 61.1484 71.4921 63.2578C71.4921 64.875 70.1562 65.6484 68.0468 66.8438L67.9154 66.9167C65.4027 68.3113 62.2109 70.0829 62.2109 74.3672V75C62.2109 75.9844 62.9843 76.6875 63.8984 76.6875H69.0312C69.9453 76.6875 70.7187 75.9844 70.7187 75V74.6484C70.7187 73.5043 71.9774 72.7729 73.5421 71.8638C76.1122 70.3706 79.5078 68.3978 79.5078 63.3281C79.5078 57.2109 73.1093 52.5 67.2031 52.5ZM66.4999 78.7969C63.7578 78.7969 61.5781 80.9766 61.5781 83.6484C61.5781 86.3203 63.7578 88.5 66.4999 88.5C69.1718 88.5 71.3515 86.3203 71.3515 83.6484C71.3515 80.9766 69.1718 78.7969 66.4999 78.7969ZM103.164 117.438C103.867 118.141 105.062 118.141 105.766 117.438L126.437 96.7656C127.141 96.0625 127.141 94.8672 126.437 94.1641L123.906 91.6328C123.203 90.9297 122.078 90.9297 121.375 91.6328L104.5 108.508L96.5546 100.633C95.8515 99.9297 94.7265 99.9297 94.0234 100.633L91.4921 103.164C90.789 103.867 90.789 105.062 91.4921 105.766L103.164 117.438Z" fill="white"/>
</svg>
