<svg width="164" height="164" viewBox="0 0 164 164" fill="none" xmlns="http://www.w3.org/2000/svg">
<rect width="164" height="164" rx="82" fill="#C30188"/>
<path d="M74.125 130C75.4375 130.375 76.5625 129.625 76.9375 128.5L102.625 40.375C103 39.0625 102.25 37.75 101.125 37.5625L89.6875 34.1875C88.375 33.8125 87.25 34.5625 86.875 35.6875L61.1875 123.812C60.8125 125.125 61.5625 126.25 62.6875 126.625L74.125 130ZM52.75 109L61 100.188C61.9375 99.25 61.75 97.9375 60.8125 97L43.9375 82L60.8125 67.1875C61.75 66.25 61.9375 64.75 61 64L52.75 55.1875C52 54.25 50.5 54.25 49.5625 55.1875L22.5625 80.5C21.625 81.25 21.625 82.75 22.5625 83.6875L49.5625 109C50.5 109.938 52 109.938 52.75 109ZM114.25 109L141.25 83.6875C142.188 82.9375 142.188 81.25 141.25 80.5L114.25 55.1875C113.312 54.25 111.812 54.25 111.062 55.1875L102.812 63.8125C102.062 64.75 102.062 66.25 103 67.1875L120.062 82L103 97C102.062 97.9375 101.875 99.25 102.812 100.188L111.062 109C111.812 109.938 113.312 109.938 114.25 109Z" fill="white"/>
</svg>
