<svg width="164" height="164" viewBox="0 0 164 164" fill="none" xmlns="http://www.w3.org/2000/svg">
<rect width="164" height="164" rx="82" fill="#D73B40"/>
<path d="M72.25 34.9375C53.5 38.6875 38.5 53.6875 34.9375 72.25C28 107.312 59.5 133.375 83.5 129.812C91.1875 128.5 94.9375 119.5 91.375 112.562C87.0625 103.938 93.25 94 102.812 94H117.812C124.375 94 129.812 88.5625 130 81.8125C129.812 52.375 103 29.125 72.25 34.9375ZM52 94C48.625 94 46 91.375 46 88C46 84.8125 48.625 82 52 82C55.1875 82 58 84.8125 58 88C58 91.375 55.1875 94 52 94ZM58 70C54.625 70 52 67.375 52 64C52 60.8125 54.625 58 58 58C61.1875 58 64 60.8125 64 64C64 67.375 61.1875 70 58 70ZM82 58C78.625 58 76 55.375 76 52C76 48.8125 78.625 46 82 46C85.1875 46 88 48.8125 88 52C88 55.375 85.1875 58 82 58ZM106 70C102.625 70 100 67.375 100 64C100 60.8125 102.625 58 106 58C109.188 58 112 60.8125 112 64C112 67.375 109.188 70 106 70Z" fill="white"/>
<path d="M132 102H102C100.312 102 99 103.406 99 105V126H135V105C135 103.406 133.594 102 132 102ZM99 132C99 135.375 101.625 138 105 138H111V144C111 147.375 113.625 150 117 150C120.281 150 123 147.375 123 144V138H129C132.281 138 135 135.375 135 132V129H99V132ZM117 141.75C118.219 141.75 119.25 142.781 119.25 144C119.25 145.312 118.219 146.25 117 146.25C115.688 146.25 114.75 145.312 114.75 144C114.75 142.781 115.688 141.75 117 141.75Z" fill="white"/>
</svg>
